<?xml version="1.0" encoding="UTF-8" standalone="no"?>
<svg
   viewBox="0 0 128 128"
   version="1.1"
   id="svg2"
   sodipodi:docname="favicon.svg"
   inkscape:version="1.4.2 (1:1.4.2+202505120737+ebf0e940d0)"
   xmlns:inkscape="http://www.inkscape.org/namespaces/inkscape"
   xmlns:sodipodi="http://sodipodi.sourceforge.net/DTD/sodipodi-0.dtd"
   xmlns="http://www.w3.org/2000/svg"
   xmlns:svg="http://www.w3.org/2000/svg">
  <defs
     id="defs2" />
  <sodipodi:namedview
     id="namedview2"
     pagecolor="#ffffff"
     bordercolor="#000000"
     borderopacity="0.25"
     inkscape:showpageshadow="2"
     inkscape:pageopacity="0.0"
     inkscape:pagecheckerboard="0"
     inkscape:deskcolor="#d1d1d1"
     inkscape:zoom="4.065864"
     inkscape:cx="62.963247"
     inkscape:cy="64.561924"
     inkscape:window-width="1854"
     inkscape:window-height="1131"
     inkscape:window-x="66"
     inkscape:window-y="32"
     inkscape:window-maximized="1"
     inkscape:current-layer="svg2" />
  <style
     id="style2">path{fill:#000}@media (prefers-color-scheme:dark){path{fill:#fff}}</style>
  <path
     style="fill:#5599ff;stroke:#5599ff;stroke-width:1;stroke-linejoin:round"
     d="M 0.73785057,71.079604 42.057481,70.833654 c 0,0 13.55562,-2.83615 17.954364,-7.624456 3.560449,-3.87577 5.320185,-9.755349 4.919004,-15.002962 -0.483512,-6.324538 -3.259015,-13.561871 -8.608257,-16.970562 -6.225977,-3.967372 -17.916816,-3.017093 -22.135516,-0.737851 -4.2187,2.279242 -7.378506,8.608256 -7.378506,8.608256 0,0 1.664956,-16.426414 5.902805,-21.397666 4.237849,-4.971252 11.989052,-11.3565211 19.676015,-12.5434593 9.728521,-1.5021738 20.351917,2.1457711 28.530221,7.6244553 6.852319,4.590401 11.252341,12.330344 15.002962,19.676015 2.842442,5.566984 4.063267,11.850704 5.410907,17.954364 1.49981,6.792918 2.9514,20.659816 2.9514,20.659816 l 23.61121,0 0.24595,57.306396 -127.40218946,-1.19736 z"
     id="path2"
     sodipodi:nodetypes="ccaaazczaaaaccccc" />
  <path
     style="fill:#aaccff;stroke:#5599ff;stroke-width:1;stroke-linejoin:round"
     d="m 33.449225,27.792371 c 0,0 8.546353,-3.658368 13.03536,-3.443303 4.015925,0.1924 8.214944,1.619449 11.313709,4.181153 3.912015,3.234006 6.084438,8.284257 7.870405,13.03536 1.318479,3.507472 2.047651,7.321515 1.967602,11.067759 -0.09688,4.534062 -0.992257,9.191217 -2.951402,13.28131 -0.907105,1.893757 -3.935203,4.919003 -3.935203,4.919003 0,0 7.82808,-0.910444 10.083957,-3.689252 3.96798,-4.887791 3.541521,-12.452313 2.705452,-18.692214 -0.819169,-6.113764 -3.554249,-12.130706 -7.378505,-16.970564 -3.303799,-4.181184 -7.715543,-7.96317 -12.78941,-9.592057 -3.513544,-1.127969 -7.537401,-0.828239 -11.067759,0.245951 -3.35066,1.019512 -8.854206,5.656854 -8.854206,5.656854 z"
     id="path3"
     sodipodi:nodetypes="caaaaacaaaaac" />
  <path
     style="fill:#ffeeaa;stroke:#ffeeaa;stroke-width:1;stroke-linejoin:round;opacity:0.4"
     d="M 70.587703,6.8866052 76.982408,29.022122 108.70998,34.678976 79.68786,42.795332 70.095803,70.833653 64.192998,42.795332 33.941126,39.84393 61.487546,30.743773 Z"
     id="path4" />
  <path
     style="opacity:0.7;fill:#ffcc00;stroke:#ffcc00;stroke-width:0.999999;stroke-linejoin:round"
     d="m 70.706248,21.010933 3.23942,12.004271 16.0725,3.067757 -14.70198,4.401566 -4.85913,15.205409 -2.99023,-15.205409 -15.32495,-1.600569 13.95442,-4.935089 z"
     id="path4-6" />
  <path
     style="opacity:1;fill:#ffcc00;stroke:#ffcc00;stroke-width:1;stroke-linejoin:round"
     d="m 70.815789,29.354069 1.590411,5.789305 7.890852,1.479489 -7.217992,2.122746 -2.385611,7.333119 -1.468062,-7.333119 -7.523847,-0.771909 6.850978,-2.380047 z"
     id="path4-6-5" />
  <path
     style="opacity:0.4;fill:#ffeeaa;stroke:#ffeeaa;stroke-width:0.999998;stroke-linejoin:round"
     d="m 17.405301,88.667532 5.822217,8.765099 14.24577,-2.289488 -11.162942,7.934997 -0.125601,13.76535 -6.443341,-11.43316 -13.2398946,3.25631 10.3990516,-8.14522 z"
     id="path4-5" />
  <path
     style="opacity:0.7;fill:#ffcc00;stroke:#ffcc00;stroke-width:0.999998;stroke-linejoin:round"
     d="m 19.440779,94.856708 3.060573,4.787773 7.245009,-1.070968 -5.614144,4.147137 0.07717,7.41346 -3.40486,-6.23204 -6.721873,1.60323 5.222234,-4.26907 z"
     id="path4-6-6" />
  <path
     style="fill:#ffcc00;stroke:#ffcc00;stroke-width:0.999998;stroke-linejoin:round"
     d="m 20.659878,98.506657 1.487952,2.304773 3.553217,-0.5375 -2.761655,2.01925 0.01934,3.58166 -1.65307,-3.00162 -3.298179,0.79322 2.569899,-2.07709 z"
     id="path4-6-5-2" />
  <path
     style="opacity:0.4;fill:#ffeeaa;stroke:#ffeeaa;stroke-width:0.999999;stroke-linejoin:round"
     d="m 115.98635,88.038193 -0.0131,6.122425 7.78024,3.86812 -8.11774,-0.156096 -4.59254,6.400838 0.58484,-7.586894 -7.60231,-3.066689 7.81015,-0.207219 z"
     id="path4-5-1" />
  <path
     style="opacity:0.7;fill:#ffcc00;stroke:#ffcc00;stroke-width:0.999999;stroke-linejoin:round"
     d="m 114.9533,91.641549 -0.0662,3.302756 3.92608,2.010945 -4.13412,-0.0053 -2.40192,3.49745 0.37171,-4.098279 -3.84322,-1.580362 3.98093,-0.187714 z"
     id="path4-6-6-2" />
  <path
     style="fill:#ffcc00;stroke:#ffcc00;stroke-width:0.999999;stroke-linejoin:round"
     d="m 114.35331,93.773061 -0.0247,1.594977 1.92953,0.980496 -2.02677,-0.01231 -1.1693,1.683487 0.17255,-1.978469 -1.88789,-0.772351 1.95124,-0.08125 z"
     id="path4-6-5-2-7" />
</svg>
